<svg xmlns="http://www.w3.org/2000/svg" width="64" height="64" viewBox="0 0 256 256">
    <defs>
        <linearGradient id="a" x1="255.998" x2="255.998" y1="487" y2="86.156" gradientUnits="userSpaceOnUse">
            <stop offset=".322" stop-color="#a163f5" />
            <stop offset=".466" stop-color="#b074ee" />
            <stop offset=".752" stop-color="#d8a1dd" />
            <stop offset=".898" stop-color="#efbad3" />
        </linearGradient>
        <linearGradient id="b" x1="1277.163" x2="1277.163" y1="6224.309" y2="1413.934" gradientUnits="userSpaceOnUse">
            <stop offset=".322" stop-color="#a163f5" />
            <stop offset=".466" stop-color="#b074ee" />
            <stop offset=".752" stop-color="#d8a1dd" />
            <stop offset=".898" stop-color="#efbad3" />
        </linearGradient>
        <linearGradient id="c" x1="1051.748" x2="1051.748" y1="6229.434" y2="1425.476" gradientUnits="userSpaceOnUse">
            <stop offset=".322" stop-color="#a163f5" />
            <stop offset=".466" stop-color="#b074ee" />
            <stop offset=".752" stop-color="#d8a1dd" />
            <stop offset=".898" stop-color="#efbad3" />
        </linearGradient>
        <linearGradient id="d" x1="1333.776" x2="1333.776" y1="6237.296" y2="1433.336" gradientUnits="userSpaceOnUse">
            <stop offset=".322" stop-color="#a163f5" />
            <stop offset=".466" stop-color="#b074ee" />
            <stop offset=".752" stop-color="#d8a1dd" />
            <stop offset=".898" stop-color="#efbad3" />
        </linearGradient>
        <linearGradient id="e" x1="9050.138" x2="9050.138" y1="26000.751" y2="4804.613" gradientUnits="userSpaceOnUse">
            <stop offset=".322" stop-color="#a163f5" />
            <stop offset=".466" stop-color="#b074ee" />
            <stop offset=".752" stop-color="#d8a1dd" />
            <stop offset=".898" stop-color="#efbad3" />
        </linearGradient>
    </defs>
    <g fill="none" stroke-miterlimit="10" font-family="none" font-size="none" font-weight="none"
        style="mix-blend-mode:normal" text-anchor="none">
        <path fill="url(#a)"
            d="M438.971 301.656c.25-8.951-.037-17.91-.861-26.826-2.218-23.372-8.292-44.514-18.053-62.837-13.4-25.161-30-38.017-36.663-42.459a156.008 156.008 0 0 0-29.774-84.385C318.537 37.062 275.44 17.1 268.8 14.228c-5.385-3.675-10.246-4.917-14.838-3.9-14.6 3.22-21.641 26.025-22.164 71.767-.056 4.838-.029 9.668.053 14.376-20.443-33.85-42.889-50.5-59.372-58.652-22.143-10.948-38.809-9.584-39.508-9.523a5.973 5.973 0 0 0-5.119 7.917h-.015c21.247 61.933 24.3 115.651 24.732 129.155a213.875 213.875 0 0 0-39.469 34.52c-1.766 1.961-3.411 3.646-5 5.276-10.031 10.277-15.39 16.961-18.078 45.318C87.009 282.3 74.3 308.623 52.256 328.71c-6.992 6.371-10.967 13.278-11.816 20.528-.9 7.71 1.8 15.573 7.863 23.028l2.012 17.8a42.385 42.385 0 0 0 25.313 34.125 120.549 120.549 0 0 0 18.641 6.246 58.743 58.743 0 0 0 15.88 21.032c13.6 11.435 30.132 15.039 45.566 15.039a119.333 119.333 0 0 0 24.6-2.735c15.341-3.262 28.661-5.521 40.085-7.081 5.228 3.56 21.2 15.489 29.194 33.242a20.568 20.568 0 0 0 29.15 9.22l182.832-107.4a20.574 20.574 0 0 0 6.4-29.59C454 342.33 440.91 307 438.971 301.656zM167.936 48.957c32.121 16.243 53.018 49.543 65.007 75.018a692.54 692.54 0 0 0 .965 13.865 149.9 149.9 0 0 0-45.3 9.061c2.189-9.66 3.322-23.335-.5-40.092-5.119-22.436-17.643-44.036-37.311-64.4a86.212 86.212 0 0 1 17.139 6.548zm-21.514 6.335c43.038 47.649 31.785 87.465 27.79 97.675-3.4 1.633-6.706 3.36-9.917 5.18a475.794 475.794 0 0 0-17.873-102.855zM58.693 365.973a6.068 6.068 0 0 0-.293-.328 26.42 26.42 0 0 1-5.277-8.579 50.763 50.763 0 0 1 17.786-1.681 3.321 3.321 0 0 1 2.614 1.74c.549.984.577 2.176.076 3.185l-6.486 13.163a55.649 55.649 0 0 1-8.42-7.5zm400.843 9.854a8.489 8.489 0 0 1-4.042 5.583l-182.831 107.4a8.514 8.514 0 0 1-6.979.78 8.358 8.358 0 0 1-5.152-4.579c-5.97-13.259-15.457-23.516-23.151-30.287 24.652-2.308 36.327-.811 36.5-.786a6 6 0 0 0 1.7-11.88c-1.242-.177-31.17-4.18-97.762 9.981-41.386 8.8-60.382-7.44-68.332-18.831 5.149.617 10.33.927 15.516.926a149.435 149.435 0 0 0 45.275-7.3 6 6 0 1 0-3.623-11.439c-26.562 8.412-48.875 7.869-66.093 4.183a6.03 6.03 0 0 0-1.11-.249 108.8 108.8 0 0 1-19.082-6.157 30.364 30.364 0 0 1-18.128-24.448l-.488-4.32c2.759 1.9 4.711 2.988 4.861 3.071a6 6 0 0 0 8.268-2.609l9.484-19.249a15.425 15.425 0 0 0-12.2-22.163 59.826 59.826 0 0 0-17.593.965 30.267 30.267 0 0 1 5.768-6.835c24.32-22.16 38.327-51.083 41.633-85.967 2.413-25.46 6.525-29.674 14.719-38.069 1.595-1.634 3.4-3.486 5.329-5.624 23.938-26.564 63.888-58.217 118.335-58.217a.237.237 0 0 0 .084 0 6 6 0 0 0 5.971-6.587c-.03-.3-2.962-30.512-2.607-60.973.493-42.395 7.177-58.873 12.749-60.1.611-.125 15.257-2.291 59 81.3a110.509 110.509 0 0 1 4.773 92.148 6 6 0 1 0 11.152 4.433 122.5 122.5 0 0 0-5.297-102.148c-11.733-22.422-22.483-40.8-32.016-54.765a221.033 221.033 0 0 1 49.758 49.206 144.641 144.641 0 0 1 19.226 133.821l-.268.752a6 6 0 0 0 11.305 4.025l.269-.755a157.754 157.754 0 0 0 8.945-45.472 112.445 112.445 0 0 1 26.064 33.043c25.819 48.465 18.353 108.675 7.544 150.651a6 6 0 1 0 11.621 2.992 343.162 343.162 0 0 0 8.234-42.473c5.626 13.036 13.222 28.8 21.3 40.273a8.486 8.486 0 0 1 1.371 6.749z"
            transform="scale(.5)" />
        <path fill="url(#b)" d="M102.94 390.25a6 6 0 1 0-4.24 1.76 6.054 6.054 0 0 0 4.24-1.76z"
            transform="scale(.5)" />
        <path fill="url(#c)" d="M81.46 392.93a5.992 5.992 0 1 0 4.25 1.76 6.029 6.029 0 0 0-4.25-1.76z"
            transform="scale(.5)" />
        <path fill="url(#d)" d="M103.18 400.79a5.992 5.992 0 1 0 4.24 1.75 6.044 6.044 0 0 0-4.24-1.75z"
            transform="scale(.5)" />
        <path fill="url(#e)"
            d="M168.463 248.789a26.439 26.439 0 1 0 26.437 26.438c-.017-14.594-11.843-26.42-26.437-26.438zm0 40.877a14.439 14.439 0 1 1 14.437-14.439c-.01 7.97-6.467 14.429-14.437 14.439z"
            transform="scale(.5)" />
    </g>
    <path
        d="M12 4.5A1.5 1.5 0 0 0 10.501 3h-.005c-.11 0-.217.014-.321.037-.515.08-1.309.302-1.984.51-.366.113-.693-.275-.507-.611C7.859 2.618 8 2.277 8 2a2 2 0 1 0-4 0c0 .275.139.614.314.931.185.336-.142.725-.509.611-.674-.209-1.465-.43-1.986-.506a1.479 1.479 0 0 0-.313-.035L1.5 3A1.5 1.5 0 0 0 0 4.5v3S1.848 7 2.5 7a1.5 1.5 0 0 1 0 3C2 10 0 9.5 0 9.5v3A1.5 1.5 0 0 0 1.5 14h9a1.5 1.5 0 0 0 1.5-1.5v-8z"
        font-family="none" font-size="none" font-weight="none" style="mix-blend-mode:normal" text-anchor="none"
        transform="translate(-18 -230)" />
</svg>